<svg xmlns="http://www.w3.org/2000/svg" width="1210.49" height="273.33" viewBox="0 0 1210.49 273.33"><path fill="#ffaa5f" d="M97.89 1.04c19.21 15.22 66.71 62.42 55.63 150.43a98.8 98.8 0 0 0 23.37-21.05 4.86 4.86 0 0 1 8.51 2 215.5 215.5 0 0 1 4.61 40.72c1.16 53.86-41.3 100.08-95.17 100.18-52.24.09-94.87-42.62-94.87-95.05 0-45.44 22-69.16 30.46-108.25a4.85 4.85 0 0 1 7.23-3.07c6.43 3.82 16.59 11 23.24 21.14 0 0 27-34.24 29.15-83.38a4.85 4.85 0 0 1 7.84-3.67"/><path fill="#ffe17d" d="M146.37 177.82c-7.59 11.39-17.2 14-17.2 14 3.89-46.71-14-81-21.33-92.9a2.22 2.22 0 0 0-4 .7c-6.73 31.21-24.79 48.54-24.79 48.54-5.88-6.86-11.46-9.66-14.37-10.75a2.18 2.18 0 0 0-2.79 1.32c-7.42 19.89-21.44 35.25-24.63 58.13-4.74 33.68 19.71 65.55 53.63 67.9a58.5 58.5 0 0 0 62.67-58.34c0-13.55-1.8-22.86-3.18-28a2.21 2.21 0 0 0-4.01-.6"/><path fill="#fff" d="M96.45 172.63a2.53 2.53 0 0 0-4.23-.85c-7.67 8.42-28.27 33.06-28.27 54.76a31.1 31.1 0 1 0 62.2 0c0-16.33-20.08-29.72-29.7-53.91"/><path fill="#ff8c5a" d="M94.06 273.28c-10.17-.74-97.31-17.01-67.26-126.69a415 415 0 0 0 13.19-78.22c-.8-.5-1.58-1-2.3-1.41a4.85 4.85 0 0 0-7.23 3.07C21.99 109.12 0 132.84 0 178.28a95 95 0 0 0 94.06 95"/><path d="M236.17 224.78q2.29-42.09 3.44-78.62t1.14-54.68q2.56.09 4.35.09c1.19 0 2.6 0 4.25-.09l-2.63 62.4h90.73l1.84-49q.19-4.09.19-13.37 2.57.09 4.35.09c1.19 0 2.6 0 4.25-.09q-3.72 60.54-5.17 133.3c-1.61-.07-3-.1-4.25-.1s-2.74 0-4.35.1q2.35-34 2.91-64.94h-90.71l-1.55 47.94-.19 17c-1.7-.07-3.13-.1-4.3-.1s-2.68 0-4.3.07m183.1-100.69a61.1 61.1 0 0 1 17.62 2.54 37.34 37.34 0 0 1 15 8.64 39 39 0 0 1 9.91 16 63.4 63.4 0 0 1 3.42 20.9 72.3 72.3 0 0 1-3.61 22.85 50.7 50.7 0 0 1-10.26 18.31 36.35 36.35 0 0 1-15.57 10.4 58.8 58.8 0 0 1-19 3 60 60 0 0 1-13.89-1.61 40.7 40.7 0 0 1-12.69-5.42 39.1 39.1 0 0 1-10.31-9.86 43.8 43.8 0 0 1-6.74-14.36 64.5 64.5 0 0 1-2.3-17.29 69.5 69.5 0 0 1 5.86-28.76q5.86-13 17.53-19.18a52.8 52.8 0 0 1 25.03-6.16m-.19 5.47a43 43 0 0 0-21.58 5.66q-10 5.65-14.65 17.27a67.3 67.3 0 0 0-4.69 25.46 61.2 61.2 0 0 0 2.73 18.34 34.5 34.5 0 0 0 8.65 14.48 33.1 33.1 0 0 0 12.84 8.2 45.5 45.5 0 0 0 14.5 2.29 46.4 46.4 0 0 0 16.31-2.83 33 33 0 0 0 13.43-9.46 41.4 41.4 0 0 0 8.54-16.29 75 75 0 0 0 2.73-20.49 64.5 64.5 0 0 0-2.69-18.87 31.5 31.5 0 0 0-8.35-14.15 31.9 31.9 0 0 0-12.96-7.46 51.9 51.9 0 0 0-14.81-2.17Zm107.22 89.06a45 45 0 0 0-1.17 6.16 61 61 0 0 1-14.55 1.95 37 37 0 0 1-9.91-1.22 14.07 14.07 0 0 1-7.08-4.4 16 16 0 0 1-3.61-7 36.8 36.8 0 0 1-.88-8.25c0-.52 0-1.33.05-2.44s.14-3.55.34-7.32l3.26-64.65H480.7a50 50 0 0 0 .49-5.28h11.92q.51-6.15.81-18.36a43 43 0 0 0 6.41-1.27q-.69 15.82-.69 19.63h29.3a50 50 0 0 0-.49 5.28H499.3l-3.19 66.92-.1 4q0 8.19 1.9 11.9a11.6 11.6 0 0 0 5.38 5.36 16.4 16.4 0 0 0 7.18 1.66 40 40 0 0 0 5.62-.42q2.99-.45 10.21-2.25m63.19 6.16 1.94-25 2.52-48.83 1.07-34.57q.09-5.57.09-11.13 0-4.2-.09-13.77 12.89.28 20.71.29 7.51 0 20.61-.44t22.18-.44q13.08 0 19.39 1.66a35.5 35.5 0 0 1 11.38 5.22 34 34 0 0 1 8.4 8.35 35.2 35.2 0 0 1 5 10.89 47 47 0 0 1 1.66 12.45 46.4 46.4 0 0 1-6.35 23.93 39.6 39.6 0 0 1-17.87 16.21 60.5 60.5 0 0 1-25.88 5.37 74.4 74.4 0 0 1-12.2-1.17q-.78-4.48-2.93-13.38t-3.52-13.18a45.2 45.2 0 0 0 9 .88q9.86 0 14.69-4.74a15.55 15.55 0 0 0 4.84-11.57 15.3 15.3 0 0 0-1.08-5.91 9.6 9.6 0 0 0-3.42-4.25 12.6 12.6 0 0 0-5.17-2.15 39 39 0 0 0-6.45-.49q-3.51 0-7.32.2l-8.2.59q-1.26 18.84-1.94 41.89-1.25 42-1.25 50.39v12.7l-19.45-.2q-4.14-.04-20.36.2m125.88 0 1.74-21 3.78-73 1.07-39.28q13.59.19 20.43.19 8.89 0 19.66-.19l-2.23 30-3.59 73.82-.78 29.5q-10.45-.11-18.87-.1Zm71.29-71.24q1.85-9.67 2.34-13.33c.32-2.44.85-6.27 1.56-11.48q28.13-6.19 48.33-6.19a80.5 80.5 0 0 1 21.09 2.59q9.57 2.58 14.95 8.35t5.37 16.5q0 5.48-1.46 24.61t-2.24 50.2q-9.59-.19-19.06-.2-9.18 0-19.54.2 1.33-10.74 3-44.34-3.71 1.75-5.8 2.54t-7.36 2.34c-3.5 1.05-6.25 1.92-8.23 2.64a19.7 19.7 0 0 0-5.16 2.73 10.9 10.9 0 0 0-3.12 3.42 8.2 8.2 0 0 0-.92 3.91 7.32 7.32 0 0 0 2.63 5.66q2.64 2.36 8.4 2.35a30.4 30.4 0 0 0 4.4-.35 39.3 39.3 0 0 0 6.44-1.7q-2.83 7.51-6.74 22a99.4 99.4 0 0 1-15.92 1.37q-12.11 0-20.16-3.37a25.16 25.16 0 0 1-12.4-10.89 29.8 29.8 0 0 1-4.35-15 26 26 0 0 1 1.61-9 30 30 0 0 1 5-8.59 34.3 34.3 0 0 1 8-7.18 56 56 0 0 1 12.57-5.68 163 163 0 0 1 20.16-5q5.07-1 9.32-2.1a40.5 40.5 0 0 0 6-2 10 10 0 0 0 2.93-1.95 7.1 7.1 0 0 0 1.61-2.34 7.1 7.1 0 0 0 .49-2.59 6.38 6.38 0 0 0-3.13-5.71q-3.12-2-9.17-2-16.75.05-41.44 9.58m103.8 115.86q-3-23.34-4.1-29a53.5 53.5 0 0 0 10.9 4 37.6 37.6 0 0 0 8.16 1.08 23 23 0 0 0 6.79-1 16 16 0 0 0 5-2.39 22.2 22.2 0 0 0 4.06-4.35 35 35 0 0 0 3.27-5 33 33 0 0 0 2.16-6l-18.38-55.57-15.74-46.09q14.56.19 20.43.19 6.84 0 18.67-.19 1.86 7.51 6.89 26t7.28 28.9q1.28 5.76 2.45 14.65l2-7.81q1-3.12 2.25-7.13t3.22-9.57l6.34-17.77 10.54-27.25q12.2.19 18.44.19 5.47 0 19.52-.19l-18.72 42.55-34.06 79a65.4 65.4 0 0 1-6.35 10.55 39.4 39.4 0 0 1-6.16 6.15 33.8 33.8 0 0 1-6.74 4.1 52 52 0 0 1-10.75 3.52 63 63 0 0 1-13.09 1.36q-3 0-8-.43c-3.33-.3-6-.59-8.07-.88s-4.78-.83-8.21-1.62m223.05-74.12q-1.27 5.87-4.88 28.32-11.33 2.25-19 3t-15.63.74a132 132 0 0 1-21.39-1.61 49.6 49.6 0 0 1-16.84-5.71 40.9 40.9 0 0 1-11.87-10.2 42.9 42.9 0 0 1-7.27-14.49 60.3 60.3 0 0 1-2.49-17.26 63 63 0 0 1 5-24.44q5-12 12.84-18.69a46.5 46.5 0 0 1 18.11-9.56 78.5 78.5 0 0 1 21-2.83 85 85 0 0 1 21.24 2.59 39.2 39.2 0 0 1 17.14 9 37 37 0 0 1 10 14.55 50.5 50.5 0 0 1 3 17.48 69 69 0 0 1-1.27 12.41l-68.46.09c-.06 1-.1 2-.1 2.82q0 10.5 7.52 15.47t18.36 4.95a82.3 82.3 0 0 0 14.7-1.51 200 200 0 0 0 20.29-5.12m-60.06-31.54h32.23c.06-1.11.1-2 .1-2.83a19.3 19.3 0 0 0-1.81-8.69 11.3 11.3 0 0 0-5.18-5.28 17 17 0 0 0-7.56-1.66 17.5 17.5 0 0 0-5.67.93 15.6 15.6 0 0 0-4.93 2.74 16.8 16.8 0 0 0-3.66 4.15 19 19 0 0 0-2.15 4.54 51 51 0 0 0-1.37 6.1m81.64 61.04 3-43.36 1-24.91q.09-6.74.1-13.76t-.2-17.68q11.82.19 18.76.19 8.1 0 18.65-.19l-.41 11a70 70 0 0 1 6.26-6.39 32 32 0 0 1 5.57-3.81 26.5 26.5 0 0 1 6.54-2.54 30.3 30.3 0 0 1 7.13-.83 35.6 35.6 0 0 1 7.82 1q.11 10.64.49 17.58l.68 15a36 36 0 0 0-10-1.56 27 27 0 0 0-10.1 1.71 21.2 21.2 0 0 0-7.51 5.18 25.5 25.5 0 0 0-5.22 8.64q-1.95 5.17-2.73 16.41t-.78 25.68q0 5.07.39 12.6-9.48-.19-19.06-.2t-20.38.24"/></svg>